<?xml version="1.0" standalone="no"?>
<!DOCTYPE svg PUBLIC "-//W3C//DTD SVG 20010904//EN"
 "http://www.w3.org/TR/2001/REC-SVG-20010904/DTD/svg10.dtd">
<svg version="1.0" xmlns="http://www.w3.org/2000/svg"
 width="900.000000pt" height="900.000000pt" viewBox="0 0 900.000000 900.000000"
 preserveAspectRatio="xMidYMid meet">
<metadata>
Created by potrace 1.16, written by Peter Selinger 2001-2019
</metadata>
<g transform="translate(0.000000,900.000000) scale(0.100000,-0.100000)"
fill="#000000" stroke="none">
<path d="M0 4500 l0 -4500 4500 0 4500 0 0 4500 0 4500 -4500 0 -4500 0 0
-4500z m4623 1690 c210 -20 359 -63 542 -155 151 -76 233 -135 361 -257 266
-257 427 -600 450 -960 l7 -110 -44 7 c-68 11 -139 54 -181 110 -41 55 -62
104 -103 240 -36 119 -82 219 -152 324 -67 101 -256 296 -279 287 -8 -3 -12
-1 -9 4 13 21 -205 139 -340 184 -116 39 -231 56 -376 56 -331 0 -624 -121
-854 -354 -147 -149 -242 -308 -300 -501 -71 -239 -142 -326 -284 -350 l-44
-7 7 103 c21 320 154 646 356 871 30 34 48 63 44 69 -5 8 -3 9 5 4 8 -5 31 10
64 42 244 233 558 368 922 396 83 7 103 7 208 -3z m-1452 -1565 c16 -9 34 -27
39 -41 14 -36 13 -1389 0 -1415 -36 -66 -167 -63 -198 6 -18 40 -16 1381 2
1414 27 49 99 65 157 36z m2778 1 c15 -8 32 -26 39 -41 9 -19 12 -200 12 -705
0 -505 -3 -686 -12 -705 -31 -69 -162 -72 -198 -6 -6 13 -10 256 -10 713 0
642 2 695 18 714 36 45 98 57 151 30z m-2979 -747 l0 -672 -52 6 c-148 18
-236 75 -293 190 -60 122 -69 187 -69 477 0 290 9 355 69 478 29 57 48 81 92
114 56 43 152 76 221 77 l32 1 0 -671z m3232 641 c112 -42 188 -147 225 -310
25 -108 25 -551 0 -660 -47 -210 -152 -315 -335 -336 l-62 -7 0 673 0 673 62
-7 c34 -4 83 -16 110 -26z m-1874 -118 c10 -7 178 -428 327 -824 16 -43 32
-78 35 -78 3 0 38 89 79 196 41 108 81 203 89 210 11 12 73 14 347 14 322 -1
334 -2 340 -21 4 -10 4 -28 0 -38 -6 -19 -18 -20 -322 -21 -174 0 -319 -2
-321 -5 -2 -2 -44 -108 -94 -237 -79 -207 -99 -248 -118 -248 -24 0 -42 41
-234 545 -13 33 -49 129 -81 213 -32 84 -62 149 -66 145 -4 -5 -40 -93 -80
-198 -39 -104 -79 -196 -87 -203 -13 -9 -92 -12 -346 -10 -301 3 -330 5 -340
20 -8 13 -8 23 0 35 10 17 37 18 327 18 l315 0 87 227 c102 266 110 280 143
260z"/>
</g>
</svg>
